<?xml version="1.0" encoding="utf-8"?>
<svg xmlns="http://www.w3.org/2000/svg">
<symbol id="arrow-down" viewBox="0 0 100 100">
  <polygon points="10 30 50 70 90 30"/>

</symbol>
<symbol id="arrow-up" viewBox="0 0 100 100">
  <polygon points="10 70 50 30 90 70"/>

</symbol>
<symbol id="caret-down" viewBox="0 0 100 100">
  <path d="M15.9928004,32 L84.0071996,32 C84.8529745,32 85.3463432,33.088769 84.7120121,33.7420304 L50.6695718,68.7278077 C50.3171656,69.0907308 49.6828344,69.0907308 49.259947,68.7278077 L15.2879879,33.7420304 C14.6536568,33.088769 15.1470255,32 15.9928004,32 Z"/>

</symbol>
<symbol id="caret-left" viewBox="0 0 100 100">
  <path d="M13.9928004,31 L82.0071996,31 C82.8529745,31 83.3463432,32.088769 82.7120121,32.7420304 L48.6695718,67.7278077 C48.3171656,68.0907308 47.6828344,68.0907308 47.259947,67.7278077 L13.2879879,32.7420304 C12.6536568,32.088769 13.1470255,31 13.9928004,31 Z" transform="rotate(90 48 49.5)"/>

</symbol>
<symbol id="caution" viewBox="0 0 100 100">
  <path d="M45.1535235,14.4145694 C47.8299786,9.86103004 52.1702869,9.86259042 54.8458251,14.4145694 L93.8391032,80.7550877 C96.5155584,85.3086272 94.4072642,89 89.1270722,89 L10.8722761,89 C5.59343837,89 3.48470724,85.3070667 6.16024537,80.7550877 L45.1535235,14.4145694 Z M50.7149859,63.3808448 L55.0880715,33.1180228 C55.4498462,30.6144531 53.4662994,28.6129032 50.6626857,28.6129032 L49.4678375,28.6129032 C46.6605354,28.6129032 44.6827797,30.6299139 45.0421579,33.1180228 L49.4132684,63.3808448 C49.7748795,65.8844145 50.3554452,65.8689534 50.7149859,63.3808448 Z M50.3022611,80.7873448 C52.5402631,80.7873448 54.3545222,78.9646549 54.3545222,76.716253 C54.3545222,74.4678512 52.5402631,72.6451613 50.3022611,72.6451613 C48.0642591,72.6451613 46.25,74.4678512 46.25,76.716253 C46.25,78.9646549 48.0642591,80.7873448 50.3022611,80.7873448 Z"/>

</symbol>
<symbol id="check" viewBox="0 0 100 100">
  <path d="M86.8845892,15.0629853 C85.4428936,13.6456716 83.0782876,13.6456716 81.6356524,15.0629853 L35.0794154,60.8048244 C33.6367801,62.2221381 31.2731139,62.2221381 29.8304786,60.8048244 L18.3636428,49.5401809 C16.9210075,48.1228673 14.5573412,48.1228673 13.114706,49.5401809 L6.08197647,56.4531634 C4.63934118,57.8704772 4.63934118,60.1926557 6.08197647,61.6099694 L29.8304786,84.9370147 C31.2731139,86.3543284 33.6367801,86.3543284 35.0794154,84.9370147 L93.9173187,27.1290804 C95.3608938,25.7108433 95.3608938,23.3895881 93.9173187,21.9713512 L86.8845892,15.0629853 Z"/>

</symbol>
<symbol id="dot" viewBox="0 0 100 100">
  <circle cx="50" cy="50" r="25" fill-rule="evenodd" stroke="#979797" stroke-width=".658"/>

</symbol>
<symbol id="download" viewBox="0 0 100 100">
  <path d="M82.8823529,38.2352941 L64.0588235,38.2352941 L64.0588235,10 L35.8235294,10 L35.8235294,38.2352941 L17,38.2352941 L49.9411765,71.1764706 L82.8823529,38.2352941 Z M17,80.5882353 L17,90 L82.8823529,90 L82.8823529,80.5882353 L17,80.5882353 Z"/>

</symbol>
<symbol id="email" viewBox="0 0 100 100">
  <path d="M11.922619,25 C11.4072286,25 11,25.4202692 11,25.9423077 L11,28.7103365 L51,56.5967077 L91,28.7103365 L91,25.9423077 C91,25.4202692 90.5927714,25 90.077381,25 L11.922619,25 Z M11,33.3335808 L11,73.0576923 C11,73.5797308 11.4072286,74 11.922619,74 L90.077381,74 C90.5927714,74 91,73.5797308 91,73.0576923 L91,33.3335808 L52.1011905,60.4543269 C51.4414512,60.9167594 50.5585488,60.9167594 49.8988095,60.4543269 L11,33.3335808 Z"/>

</symbol>
<symbol id="expand" viewBox="0 0 100 100">
  <path d="M58.1390718,68 L41.8609282,68 C40.426548,68 38.4580151,68.8150832 37.452559,69.8205393 L24.3793518,82.8937464 C23.3649773,83.908121 23.7067777,84.7142857 25.1228645,84.7142857 L30.7156612,84.7142857 C33.5407506,84.7142857 35.8571429,87.0168213 35.8571429,89.8571429 C35.8571429,92.7172667 33.5447867,95 30.6923509,95 L10.1647919,95 C7.31930103,95 5,92.6876439 5,89.8352081 L5,69.3076491 C5,66.4621582 7.30253557,64.1428571 10.1428571,64.1428571 C13.002981,64.1428571 15.2857143,66.4447769 15.2857143,69.2843388 L15.2857143,74.8771355 C15.2857143,76.3073793 16.1007975,76.6261043 17.1062536,75.6206482 L30.1794607,62.547441 C31.1938353,61.5330665 32,59.5682909 32,58.1390718 L32,41.8609282 C32,40.426548 31.1849168,38.4580151 30.1794607,37.452559 L17.1062536,24.3793518 C16.091879,23.3649773 15.2857143,23.7067777 15.2857143,25.1228645 L15.2857143,30.7156612 C15.2857143,33.5407506 12.9831787,35.8571429 10.1428571,35.8571429 C7.28273326,35.8571429 5,33.5447867 5,30.6923509 L5,10.1647919 C5,7.31930103 7.31235611,5 10.1647919,5 L30.6923509,5 C33.5378418,5 35.8571429,7.30253557 35.8571429,10.1428571 C35.8571429,13.002981 33.5552231,15.2857143 30.7156612,15.2857143 L25.1228645,15.2857143 C23.6926207,15.2857143 23.3738957,16.1007975 24.3793518,17.1062536 L37.452559,30.1794607 C38.4669335,31.1938353 40.4317091,32 41.8609282,32 L58.1390718,32 C59.573452,32 61.5419849,31.1849168 62.547441,30.1794607 L75.6206482,17.1062536 C76.6350227,16.091879 76.2932223,15.2857143 74.8771355,15.2857143 L69.2843388,15.2857143 C66.4592494,15.2857143 64.1428571,12.9831787 64.1428571,10.1428571 C64.1428571,7.28273326 66.4552133,5 69.3076491,5 L89.8352081,5 C92.680699,5 95,7.31235611 95,10.1647919 L95,30.6923509 C95,33.5378418 92.6974644,35.8571429 89.8571429,35.8571429 C86.997019,35.8571429 84.7142857,33.5552231 84.7142857,30.7156612 L84.7142857,25.1228645 C84.7142857,23.6926207 83.8992025,23.3738957 82.8937464,24.3793518 L69.8205393,37.452559 C68.8061647,38.4669335 68,40.4317091 68,41.8609282 L68,58.1390718 C68,59.573452 68.8150832,61.5419849 69.8205393,62.547441 L82.8937464,75.6206482 C83.908121,76.6350227 84.7142857,76.2932223 84.7142857,74.8771355 L84.7142857,69.2843388 C84.7142857,66.4592494 87.0168213,64.1428571 89.8571429,64.1428571 C92.7172667,64.1428571 95,66.4552133 95,69.3076491 L95,89.8352081 C95,92.680699 92.6876439,95 89.8352081,95 L69.3076491,95 C66.4621582,95 64.1428571,92.6974644 64.1428571,89.8571429 C64.1428571,86.997019 66.4447769,84.7142857 69.2843388,84.7142857 L74.8771355,84.7142857 C76.3073793,84.7142857 76.6261043,83.8992025 75.6206482,82.8937464 L62.547441,69.8205393 C61.5330665,68.8061647 59.5682909,68 58.1390718,68 Z M44.8334291,42.2857143 C43.426365,42.2857143 42.2857143,43.4453648 42.2857143,44.8334291 L42.2857143,55.1665709 C42.2857143,56.573635 43.4453648,57.7142857 44.8334291,57.7142857 L55.1665709,57.7142857 C56.573635,57.7142857 57.7142857,56.5546352 57.7142857,55.1665709 L57.7142857,44.8334291 C57.7142857,43.426365 56.5546352,42.2857143 55.1665709,42.2857143 L44.8334291,42.2857143 Z"/>

</symbol>
<symbol id="filter" viewBox="0 0 100 100">
  <path d="M19.3357962,10.0499746 L80.4773121,10.0499746 C81.3164597,9.85722448 82.1832861,10.2336813 82.6152655,10.9784734 C83.0472449,11.7232654 82.9435813,12.6626065 82.3595881,13.295278 L58.6039672,56.8472495 C58.4470622,57.1661647 58.3586257,57.5143833 58.344343,57.8695201 L58.344343,87.6451787 C58.344343,89.851985 56.8352769,90.6470843 55.0016805,89.4300956 L46.417853,83.7021351 C45.8511673,83.277422 45.5008269,82.6242449 45.4604885,81.9172182 L45.4604885,57.8857466 C45.4410026,57.479938 45.3241253,57.0847814 45.1197317,56.7336639 L17.5346528,13.3601841 C16.3663436,11.5428142 17.1776695,10.0499746 19.3357962,10.0499746 Z"/>

</symbol>
<symbol id="home" viewBox="0 0 100 100">
  <path d="M50.9326473,11.0005516 C50.4081097,11.0118741 49.918722,11.1867815 49.4482719,11.5116366 L1.94825968,49.2532423 C0.855396024,50.136649 0.700345984,51.7667117 1.51857207,52.8309009 C2.32502228,53.8798677 4.04041022,54.0476923 5.07326049,53.2240433 L51.0107723,16.7404303 L96.9482854,53.2240433 C97.9811607,54.0476923 99.6494111,53.8734516 100.463911,52.8309009 C101.272412,51.7961502 101.185412,50.0772688 100.073286,49.2532423 L79.7607797,33.0951534 L79.7607797,11.0005516 L69.7607772,11.0005516 L69.7607772,25.1536773 L52.5732727,11.5116366 C52.0168726,11.142737 51.4571849,10.9895436 50.9326473,11.0005516 Z M51.0107723,21.0649965 L17.2607636,47.4841645 L17.2607636,89 L41.0107697,89 L41.0107697,73.9033326 C41.0107697,68.3276301 45.4707709,63.8388876 51.0107723,63.8388876 C56.5507738,63.8388876 61.0107749,68.3276301 61.0107749,73.9033326 L61.0107749,89 L84.760781,89 L84.760781,47.4841645 L51.0107723,21.0649965 Z"/>

</symbol>
<symbol id="message" viewBox="0 0 100 100">
  <path d="M51.1528213,82.3145408 C49.7539185,82.3145408 47.9670846,82.2433673 46.6857367,82.1484694 C45.9153563,82.0861792 45.1638388,82.4099161 44.6755486,83.0144133 L33.4137931,97 L33.4137931,81.211352 C33.4133719,80.2124797 32.7929799,79.3208665 31.862069,78.98125 C16.1802508,72.8721939 6,58.8154337 6,43.1454082 C6,21.923852 26.8659875,4 51.5525078,4 C76.0626959,4 96,21.5561224 96,43.1454082 C96,64.7346939 75.9098746,82.3145408 51.1528213,82.3145408 Z"/>

</symbol>
<symbol id="minus" viewBox="0 0 100 100">
  <path d="M12.9411764,42 C8.55539705,42 5,45.5815616 5,49.9999666 C5,54.4181183 8.55539705,58 12.9411764,58 L87.0588236,58 C91.4446029,58 95,54.4181183 95,49.9999666 C95,45.5815616 91.4446029,42 87.0588236,42 L12.9411764,42 Z"/>

</symbol>
<symbol id="open-new-window" viewBox="0 0 100 100">
  <path d="M81.1111111,81.1111111 L18.8888889,81.1111111 L18.8888889,18.8888889 L50,18.8888889 L50,10 L18.8888889,10 C13.9555556,10 10,14 10,18.8888889 L10,81.1111111 C10,86 13.9555556,90 18.8888889,90 L81.1111111,90 C86,90 90,86 90,81.1111111 L90,50 L81.1111111,50 L81.1111111,81.1111111 Z M58.8888889,10 L58.8888889,18.8888889 L74.8444444,18.8888889 L31.1555556,62.5777778 L37.4222222,68.8444444 L81.1111111,25.1555556 L81.1111111,41.1111111 L90,41.1111111 L90,10 L58.8888889,10 Z"/>

</symbol>
<symbol id="pencil" viewBox="0 0 100 100">
  <path d="M66.2358508,15.4366653 L20.4698496,61.1941168 C20.2876689,61.3776776 20.1256551,61.5802105 19.9865761,61.7982553 C19.9865761,61.7982553 19.9261669,61.919083 19.8899214,61.9794969 C19.7963633,62.142146 19.7155749,62.3118147 19.6482846,62.4869732 L19.6482846,62.5473871 L11.2151619,86.1450377 C10.7384418,87.4666526 11.0683162,88.9447395 12.061709,89.938209 C13.0551018,90.9316785 14.5330746,91.2615784 15.8545876,90.7848215 L39.4624985,82.3268822 C39.6421512,82.2562726 39.8158767,82.1714233 39.9820175,82.073144 L40.1511632,81.9885647 C40.3691912,81.8494749 40.5717084,81.6874486 40.7552551,81.5052538 L82.5825772,39.7471994 L86.5575018,35.7719679 C90.3252778,32.1696198 91.848298,26.8099549 90.5379483,21.7643669 C89.2275987,16.718779 85.2891526,12.7776872 80.2447338,11.4642377 C75.2003151,10.1507882 69.8401596,11.6707402 66.2358508,15.4366653 Z M20.6027498,81.3965089 L24.5172652,70.4374362 L31.5609766,77.4696085 L20.6027498,81.3965089 Z M81.4348027,30.6488732 L80.0212276,32.0625574 L69.944975,21.9855269 L71.35855,20.5718427 C73.1391692,18.6793144 75.8084468,17.9056816 78.3250045,18.5527653 C80.8415622,19.1998491 82.8066904,21.165129 83.4537242,23.681881 C84.100758,26.198633 83.3271849,28.8681165 81.4348027,30.6488732 Z"/>

</symbol>
<symbol id="plus" viewBox="0 0 100 100">
  <path d="M50,5 C45.6143529,5 42.0588236,8.55539443 42.0588236,12.9411707 L42.0588236,42.0587963 L12.9411764,42.0587963 C8.55539705,42.0587963 5,45.6140055 5,49.9999007 C5,54.3855445 8.55539705,57.9410714 12.9411764,57.9410714 L42.0588236,57.9410714 L42.0588236,87.0588293 C42.0588236,91.4446056 45.6143529,95 50,95 C54.3859118,95 57.9411764,91.4446056 57.9411764,87.0588293 L57.9411764,57.9410714 L87.0588236,57.9410714 C91.4446029,57.9410714 95,54.3855445 95,49.9999007 C95,45.6140055 91.4446029,42.0587963 87.0588236,42.0587963 L57.9411764,42.0587963 L57.9411764,12.9411707 C57.9411764,8.55539443 54.3859118,5 50,5 Z"/>

</symbol>
<symbol id="reorder-arrows" viewBox="0 0 100 100">
  <g transform="translate(18 10)">
    <polygon points="0 47.595 32.405 80 64.81 47.595"/>
    <polygon points="0 32.405 32.405 0 64.81 32.405"/>
  </g>

</symbol>
<symbol id="search" viewBox="0 0 100 100">
  <path d="M67.1755289,60.3144654 L63.5620354,60.3144654 L62.2813036,59.079474 C66.7638651,53.8650658 69.46255,47.0954831 69.46255,39.731275 C69.46255,23.3104631 56.1520869,10 39.731275,10 C23.3104631,10 10,23.3104631 10,39.731275 C10,56.1520869 23.3104631,69.46255 39.731275,69.46255 C47.0954831,69.46255 53.8650658,66.7638651 59.079474,62.2813036 L60.3144654,63.5620354 L60.3144654,67.1755289 L83.184677,90 L90,83.184677 L67.1755289,60.3144654 Z M39.731275,60.3144654 C28.3419097,60.3144654 19.1480846,51.1206404 19.1480846,39.731275 C19.1480846,28.3419097 28.3419097,19.1480846 39.731275,19.1480846 C51.1206404,19.1480846 60.3144654,28.3419097 60.3144654,39.731275 C60.3144654,51.1206404 51.1206404,60.3144654 39.731275,60.3144654 Z"/>

</symbol>
<symbol id="settings" viewBox="0 0 100 100">
  <path d="M79.72,53.92 C79.88,52.64 80,51.36 80,50 C80,48.64 79.88,47.36 79.72,46.08 L88.16,39.48 C88.92,38.88 89.12,37.8 88.64,36.92 L80.64,23.08 C80.16,22.2 79.08,21.88 78.2,22.2 L68.24,26.2 C66.16,24.6 63.92,23.28 61.48,22.28 L59.96,11.68 C59.84,10.72 59,10 58,10 L42,10 C41,10 40.16,10.72 40.04,11.68 L38.52,22.28 C36.08,23.28 33.84,24.64 31.76,26.2 L21.8,22.2 C20.88,21.84 19.84,22.2 19.36,23.08 L11.36,36.92 C10.84,37.8 11.08,38.88 11.84,39.48 L20.28,46.08 C20.12,47.36 20,48.68 20,50 C20,51.32 20.12,52.64 20.28,53.92 L11.84,60.52 C11.08,61.12 10.88,62.2 11.36,63.08 L19.36,76.92 C19.84,77.8 20.92,78.12 21.8,77.8 L31.76,73.8 C33.84,75.4 36.08,76.72 38.52,77.72 L40.04,88.32 C40.16,89.28 41,90 42,90 L58,90 C59,90 59.84,89.28 59.96,88.32 L61.48,77.72 C63.92,76.72 66.16,75.36 68.24,73.8 L78.2,77.8 C79.12,78.16 80.16,77.8 80.64,76.92 L88.64,63.08 C89.12,62.2 88.92,61.12 88.16,60.52 L79.72,53.92 Z M50,64 C42.28,64 36,57.72 36,50 C36,42.28 42.28,36 50,36 C57.72,36 64,42.28 64,50 C64,57.72 57.72,64 50,64 Z"/>

</symbol>
<symbol id="spinner" viewBox="0 0 100 100">
  <path d="M50,96 C25.25,96 5,75.75 5,51 C5,26.25 25.25,6 50,6 C74.75,6 95,26.25 95,51 C95,52.546875 93.734375,53.8125 92.1875,53.8125 C90.640625,53.8125 89.375,52.546875 89.375,51 C89.375,29.34375 71.65625,11.625 50,11.625 C28.34375,11.625 10.625,29.34375 10.625,51 C10.625,72.65625 28.34375,90.375 50,90.375 C51.546875,90.375 52.8125,91.640625 52.8125,93.1875 C52.8125,94.734375 51.546875,96 50,96 Z"/>

</symbol>
<symbol id="star" viewBox="0 0 100 100">
  <polygon points="51 76.483 23.153 91 28.553 60.282 6 38.506 37.129 33.983 51 6 64.871 33.983 96 38.506 73.447 60.282 78.847 91"/>

</symbol>
<symbol id="task-status" viewBox="0 0 100 100">
  <circle cx="50" cy="50" r="40" fill-rule="evenodd"/>

</symbol>
<symbol id="trash" viewBox="0 0 100 100">
  <path d="M63.3529412,18.3658537 L63.3529412,8 L38.6470588,8 L38.6470588,18.3658537 L22.1764706,18.3658537 L16,18.3658537 L16,22.5121951 L22.1764706,22.5121951 L22.1764706,82.6341463 C22.1764706,88.3353659 26.8088235,93 32.4705882,93 L69.5294118,93 C75.1911765,93 79.8235294,88.3353659 79.8235294,82.6341463 L79.8235294,22.5121951 L86,22.5121951 L86,18.3658537 L79.8235294,18.3658537 L63.3529412,18.3658537 Z M35.8113208,29.25 L39.7735849,29.25 L39.7735849,79.71875 L35.8113208,79.71875 L35.8113208,29.25 Z M52.9811321,29.25 L52.9811321,79.71875 L49.0188679,79.71875 L49.0188679,29.25 L52.9811321,29.25 Z M66.1886792,79.71875 L62.2264151,79.71875 L62.2264151,29.25 L66.1886792,29.25 L66.1886792,79.71875 Z M42.4150943,11.984375 L58.2641509,11.984375 L58.2641509,18.625 L42.4150943,18.625 L42.4150943,11.984375 Z"/>

</symbol>
<symbol id="user" viewBox="0 0 96 96">
  <path d="M97,85.9269979 C97,81.0342197 93.8359706,76.8802152 89.4443186,75.4094189 C89.0985515,75.2922278 66.6190163,69.550236 63.4022968,63.163224 C61.9346627,60.2450702 63.3818584,56.5071408 64.8466802,53.928935 C65.5172128,53.0264698 66.1733075,52.0715021 66.8037131,51.0694709 C70.6125866,44.9699054 73.5189784,36.9544048 73.8144928,27.0464077 C74.2598272,12.1406294 62.7255765,0.035063616 49.032533,0 C35.2774237,0.035063616 23.7433605,12.1406294 24.1915074,27.0467827 C24.4873969,36.9549673 27.3909761,44.970468 31.1992871,51.0640334 C31.8295053,52.0718774 32.4857874,53.0270323 33.1565077,53.9293104 C34.6215167,56.5075157 36.0685248,60.2456328 34.6008907,63.1635989 C31.3867962,69.550236 8.90444848,75.2926027 8.55868158,75.4097942 C4.16721717,76.880965 1,81.034595 1,85.9277477 L1,96 L97,96 L97,85.9269979 Z"/>

</symbol></svg>